<svg width="34" height="32" viewBox="0 0 34 32" fill="none" xmlns="http://www.w3.org/2000/svg">
<g clip-path="url(#clip0_32_232)">
<path d="M33.2835 9.29937C33.2835 6.48687 31.1501 4.22437 28.5139 4.22437C24.9432 4.0625 21.3016 4 17.5801 4H16.4199C12.7074 4 9.0594 4.0625 5.4887 4.225C2.85901 4.225 0.725612 6.5 0.725612 9.3125C0.564479 11.5369 0.496159 13.7619 0.500026 15.9869C0.49358 18.2119 0.566627 20.439 0.719166 22.6681C0.719166 25.4806 2.85257 27.7619 5.48225 27.7619C9.23342 27.9306 13.0813 28.0056 16.9936 27.9994C20.9123 28.0119 24.7494 27.9327 28.5049 27.7619C31.141 27.7619 33.2744 25.4806 33.2744 22.6681C33.4291 20.4369 33.5 18.2119 33.4936 15.9806C33.5082 13.7556 33.4382 11.5285 33.2835 9.29937ZM13.8418 22.1181V9.83687L23.1875 15.9744L13.8418 22.1181Z" fill="white"/>
</g>
<defs>
<clipPath id="clip0_32_232">
<rect width="33" height="32" fill="white" transform="translate(0.5)"/>
</clipPath>
</defs>
</svg>
