<svg width="33" height="32" viewBox="0 0 33 32" fill="none" xmlns="http://www.w3.org/2000/svg">
<path d="M26.2619 7.41625C26.0594 7.31159 25.8623 7.19687 25.6713 7.0725C25.1158 6.70528 24.6065 6.27259 24.1544 5.78375C23.0231 4.48938 22.6006 3.17625 22.445 2.25688H22.4513C22.3213 1.49375 22.375 1 22.3831 1H17.2306V20.9237C17.2306 21.1912 17.2306 21.4556 17.2194 21.7169C17.2194 21.7494 17.2163 21.7794 17.2144 21.8144C17.2144 21.8288 17.2144 21.8438 17.2113 21.8587V21.87C17.1569 22.5849 16.9278 23.2754 16.544 23.8809C16.1601 24.4864 15.6334 24.9884 15.01 25.3425C14.3603 25.7121 13.6256 25.906 12.8781 25.905C10.4775 25.905 8.53188 23.9475 8.53188 21.53C8.53188 19.1125 10.4775 17.155 12.8781 17.155C13.3326 17.1546 13.7842 17.2261 14.2163 17.3669L14.2225 12.1206C12.9109 11.9512 11.5783 12.0554 10.309 12.4268C9.03964 12.7981 7.86103 13.4285 6.84751 14.2781C5.95942 15.0498 5.21281 15.9704 4.64126 16.9988C4.42376 17.3738 3.60313 18.8806 3.50376 21.3263C3.44126 22.7144 3.85813 24.1525 4.05688 24.7469V24.7594C4.18188 25.1094 4.66626 26.3037 5.45563 27.3106C6.09215 28.1183 6.84419 28.8278 7.68751 29.4163V29.4037L7.70001 29.4163C10.1944 31.1112 12.96 31 12.96 31C13.4388 30.9806 15.0425 31 16.8638 30.1369C18.8838 29.18 20.0338 27.7544 20.0338 27.7544C20.7684 26.9025 21.3526 25.9318 21.7613 24.8838C22.2275 23.6581 22.3831 22.1881 22.3831 21.6006V11.0306C22.4456 11.0681 23.2781 11.6187 23.2781 11.6187C23.2781 11.6187 24.4775 12.3875 26.3488 12.8881C27.6913 13.2444 29.5 13.3194 29.5 13.3194V8.20438C28.8663 8.27313 27.5794 8.07313 26.2619 7.41625Z" fill="white"/>
</svg>
