<svg width="34" height="32" viewBox="0 0 34 32" fill="none" xmlns="http://www.w3.org/2000/svg">
<path d="M23.0154 4.33313C24.6095 4.33774 26.1369 4.95385 27.2641 6.04689C28.3913 7.13993 29.0267 8.62109 29.0315 10.1669V21.8331C29.0267 23.3789 28.3913 24.8601 27.2641 25.9531C26.1369 27.0462 24.6095 27.6623 23.0154 27.6669H10.9846C9.3905 27.6623 7.86305 27.0462 6.73586 25.9531C5.60866 24.8601 4.9733 23.3789 4.96854 21.8331V10.1669C4.9733 8.62109 5.60866 7.13993 6.73586 6.04689C7.86305 4.95385 9.3905 4.33774 10.9846 4.33313H23.0154ZM23.0154 2H10.9846C6.35234 2 2.5625 5.675 2.5625 10.1669V21.8331C2.5625 26.325 6.35234 30 10.9846 30H23.0154C27.6477 30 31.4375 26.325 31.4375 21.8331V10.1669C31.4375 5.675 27.6477 2 23.0154 2Z" fill="white"/>
<path d="M24.8201 10.167C24.4632 10.167 24.1143 10.0644 23.8175 9.87207C23.5207 9.67977 23.2894 9.40646 23.1528 9.08669C23.0162 8.76692 22.9805 8.41505 23.0501 8.07558C23.1197 7.73612 23.2916 7.4243 23.544 7.17956C23.7964 6.93481 24.1179 6.76814 24.468 6.70062C24.8181 6.63309 25.181 6.66775 25.5107 6.8002C25.8405 6.93266 26.1223 7.15696 26.3206 7.44475C26.5189 7.73253 26.6248 8.07088 26.6248 8.41699C26.6253 8.64694 26.579 8.87473 26.4885 9.08727C26.3979 9.29982 26.265 9.49293 26.0973 9.65553C25.9297 9.81813 25.7305 9.94702 25.5113 10.0348C25.2921 10.1226 25.0572 10.1675 24.8201 10.167ZM17 11.3332C17.9519 11.3332 18.8824 11.607 19.6738 12.1198C20.4653 12.6326 21.0821 13.3614 21.4464 14.2142C21.8106 15.0669 21.9059 16.0053 21.7202 16.9106C21.5345 17.8159 21.0762 18.6474 20.4031 19.3001C19.73 19.9528 18.8725 20.3972 17.9389 20.5773C17.0053 20.7574 16.0377 20.665 15.1583 20.3117C14.2788 19.9585 13.5272 19.3604 12.9984 18.5929C12.4695 17.8254 12.1873 16.9231 12.1873 16.0001C12.1887 14.7628 12.6961 13.5765 13.5984 12.7016C14.5007 11.8267 15.724 11.3346 17 11.3332ZM17 9.00012C15.5723 9.00012 14.1766 9.41066 12.9895 10.1798C11.8024 10.949 10.8771 12.0423 10.3307 13.3213C9.78438 14.6004 9.64142 16.0079 9.91996 17.3658C10.1985 18.7236 10.886 19.9709 11.8956 20.9499C12.9051 21.9288 14.1914 22.5955 15.5917 22.8656C16.992 23.1357 18.4434 22.9971 19.7625 22.4673C21.0816 21.9375 22.209 21.0403 23.0022 19.8891C23.7954 18.738 24.2188 17.3846 24.2188 16.0001C24.2188 14.1436 23.4582 12.3631 22.1044 11.0504C20.7507 9.73762 18.9145 9.00012 17 9.00012Z" fill="white"/>
</svg>
